<?xml version="1.0" standalone="no"?><!DOCTYPE svg PUBLIC "-//W3C//DTD SVG 1.1//EN" "http://www.w3.org/Graphics/SVG/1.1/DTD/svg11.dtd"><svg t="1716880444965" class="icon" viewBox="0 0 1070 1024" version="1.1" xmlns="http://www.w3.org/2000/svg" p-id="3192" xmlns:xlink="http://www.w3.org/1999/xlink" width="208.984375" height="200"><path d="M930.207826 458.306589v111.924421H140.665574v-111.928958H22.687996v543.000877h1025.497407V458.306589z" fill="#E4BEAD" p-id="3193"></path><path d="M931.718846 468.892808v111.924421h-789.542252v-111.928959h-117.977578v55.966748h95.289582v111.924421h834.918244v-111.924421h95.289582v-55.96221z" fill="#FFFFFF" opacity=".29" p-id="3194"></path><path d="M907.51983 458.306589v111.924421a22.687996 22.687996 0 0 1 22.687996-22.687996H140.665574a22.687996 22.687996 0 0 1 22.687995 22.687996v-111.928958a22.687996 22.687996 0 0 0-22.687995-22.687996H22.687996a22.687996 22.687996 0 0 0-22.687996 22.687996v543.000877a22.687996 22.687996 0 0 0 22.687996 22.687996h1025.497407a22.687996 22.687996 0 0 0 22.687996-22.687996V458.306589a22.687996 22.687996 0 0 0-22.687996-22.687995h-117.977577a22.687996 22.687996 0 0 0-22.687996 22.687995z m117.977578 0v542.99634a22.687996 22.687996 0 0 1 22.687995-22.687996H22.687996a22.687996 22.687996 0 0 1 22.687995 22.687996V458.302052a22.687996 22.687996 0 0 1-22.687995 22.687995h117.977578a22.687996 22.687996 0 0 1-22.687996-22.687995v111.928958a22.687996 22.687996 0 0 0 22.687996 22.687996h789.542252a22.687996 22.687996 0 0 0 22.687995-22.687996v-111.924421a22.687996 22.687996 0 0 1-22.687995 22.687996h117.977577a22.687996 22.687996 0 0 1-22.687995-22.687996z" fill="#6E6E96" p-id="3195"></path><path d="M286.290743 275.282528H779.37803v726.020401H286.290743z" fill="#E4BEAD" p-id="3196"></path><path d="M779.37803 978.614933H286.290743l22.687996 22.687996V275.282528l-22.687996 22.687995H779.37803l-22.687996-22.687995v726.020401l22.687996-22.687996z m0-726.020401H263.602747v771.396393H802.066026V252.594532h-22.687996z" fill="#6E6E96" p-id="3197"></path><path d="M379.311526 297.970523h152.132086v680.64441H379.311526z" fill="#FFFFFF" opacity=".29" p-id="3198"></path><path d="M378.803315 1001.302929v-201.419489c0-60.844667 32.398458-137.838649 152.640297-137.838649 120.264528 0 152.644835 89.095759 152.644836 137.838649v201.419489H378.803315z" fill="#ED9898" p-id="3199"></path><path d="M401.49131 1001.302929v-201.419489c0-34.626419 12.664439-115.150654 129.952302-115.150653 128.473045 0 129.95684 110.454238 129.95684 115.150653v201.419489l22.687996-22.687996H378.803315l22.687995 22.687996z m305.285133 0v-201.419489c0-55.517526-36.645651-160.526645-175.332831-160.526645-129.271662 0-175.328294 82.920087-175.328293 160.526645v224.107485h350.661124v-22.687996z" fill="#6E6E96" p-id="3200"></path><path d="M733.580042 22.687996v81.676784h-128.559259V22.687996H450.733336v81.676784h-122.515177V22.687996h-117.977578v207.21854c0 24.956795 20.419196 45.375991 45.375992 45.375992h550.565055c24.956795 0 45.375991-20.419196 45.375992-45.375992V22.687996h-117.977578z" fill="#E4BEAD" p-id="3201"></path><path d="M395.193123 104.36478v170.917748h145.203172V22.687996h-89.662959v81.676784z" fill="#FFFFFF" opacity=".29" p-id="3202"></path><path d="M710.892046 22.687996v81.676784a22.687996 22.687996 0 0 1 22.687996-22.687995h-128.559259a22.687996 22.687996 0 0 1 22.687995 22.687995V22.687996a22.687996 22.687996 0 0 0-22.687995-22.687996H450.733336a22.687996 22.687996 0 0 0-22.687995 22.687996v81.676784a22.687996 22.687996 0 0 1 22.687995-22.687995h-122.515177a22.687996 22.687996 0 0 1 22.687996 22.687995V22.687996a22.687996 22.687996 0 0 0-22.687996-22.687996h-117.977578a22.687996 22.687996 0 0 0-22.687995 22.687996v207.21854c0 37.530483 30.533505 68.063987 68.063987 68.063987h550.565055c37.530483 0 68.063987-30.533505 68.063987-68.063987V22.687996a22.687996 22.687996 0 0 0-22.687995-22.687996h-117.977578a22.687996 22.687996 0 0 0-22.687996 22.687996z m117.977578 0v207.21854c0 12.510161-10.177835 22.687996-22.687996 22.687996H255.616573c-12.510161 0-22.687996-10.177835-22.687996-22.687996V22.687996a22.687996 22.687996 0 0 1-22.687996 22.687995h117.977578a22.687996 22.687996 0 0 1-22.687995-22.687995v81.676784a22.687996 22.687996 0 0 0 22.687995 22.687996h122.515177a22.687996 22.687996 0 0 0 22.687996-22.687996V22.687996a22.687996 22.687996 0 0 1-22.687996 22.687995h154.282909a22.687996 22.687996 0 0 1-22.687996-22.687995v81.676784a22.687996 22.687996 0 0 0 22.687996 22.687996h128.559259a22.687996 22.687996 0 0 0 22.687996-22.687996V22.687996a22.687996 22.687996 0 0 1-22.687996 22.687995h117.977578a22.683458 22.683458 0 0 1-22.683458-22.687995z" fill="#6E6E96" p-id="3203"></path><path d="M204.613958 736.611158v102.849222H110.835397v-102.849222s-1.515558-49.913591 45.375991-49.913591 48.40257 49.913591 48.40257 49.913591z" fill="#B3948A" p-id="3204"></path><path d="M181.925963 736.611158v102.849222a22.687996 22.687996 0 0 1 22.687995-22.687996H110.835397a22.687996 22.687996 0 0 1 22.687996 22.687996v-102.849222a33.16985 33.16985 0 0 0-0.009076-0.685178c-0.031763-3.466726 1.229689-15.332548 7.341836-21.50822 1.229689-1.238765 4.977746-5.023122 15.359773-5.023122 23.677192 0 25.582984 23.250658 25.723649 27.906235a17.48337 17.48337 0 0 1-0.013612-0.689715z m-25.714575-72.601587c-24.530261 0-39.663154 10.295812-48.035024 18.921789-20.419196 21.05446-20.119715 51.020765-20.01535 54.364975a35.434112 35.434112 0 0 1-0.009075-0.685177v102.849222a22.687996 22.687996 0 0 0 22.687995 22.687996h93.778562a22.687996 22.687996 0 0 0 22.687996-22.687996v-102.849222l-0.009075-0.685178c-0.880294-28.913582-20.532636-71.916409-71.086029-71.916409z" fill="#6E6E96" p-id="3205"></path><path d="M959.370975 736.611158v102.849222h-93.769486v-102.849222s-1.524633-49.913591 45.375991-49.913591c46.89155 0 48.393495 49.913591 48.393495 49.913591z" fill="#B3948A" p-id="3206"></path><path d="M936.68298 736.611158v102.849222a22.687996 22.687996 0 0 1 22.687995-22.687996h-93.769486a22.687996 22.687996 0 0 1 22.687996 22.687996v-102.849222c0-0.231418-0.009075-0.467373-0.013613-0.685178-0.036301-3.466726 1.229689-15.332548 7.337298-21.50822 1.229689-1.234227 4.977746-5.023122 15.36431-5.023122 21.952905 0 25.301653 19.665955 25.728188 28.119502-0.022688-0.385696-0.022688-0.526362-0.022688-0.902982z m-25.7055-72.601587c-24.530261 0-39.667692 10.295812-48.044099 18.921789-20.419196 21.05446-20.119715 51.020765-20.010813 54.364975-0.009075-0.231418-0.009075-0.462835-0.009075-0.685177v102.849222c0 12.537386 10.150609 22.687996 22.687996 22.687996h93.769486c12.537386 0 22.687996-10.150609 22.687996-22.687996v-102.849222l-0.009075-0.676102c-0.875757-28.922657-20.523561-71.925484-71.072416-71.925485z" fill="#6E6E96" p-id="3207"></path><path d="M476.86537 434.107573v80.161227H383.091346V434.107573s-1.520096-49.913591 45.375991-49.913591c46.89155 0 48.398033 49.913591 48.398033 49.913591z" fill="#B3948A" p-id="3208"></path><path d="M454.177374 434.107573v80.161227a22.687996 22.687996 0 0 1 22.687996-22.687996H383.091346a22.687996 22.687996 0 0 1 22.687996 22.687996V434.107573l-0.009076-0.689715c-0.031763-3.462188 1.229689-15.32801 7.337298-21.503682 1.229689-1.243302 4.977746-5.032197 15.359773-5.032198 21.957442 0 25.30619 19.665955 25.728187 28.119502-0.01815-0.376621-0.01815-0.517286-0.01815-0.893907z m-25.710037-72.601586c-24.534799 0-39.663154 10.291275-48.035024 18.921788-20.423734 21.05446-20.119715 51.020765-20.01535 54.369513a35.420499 35.420499 0 0 1-0.009075-0.689715v80.161227a22.687996 22.687996 0 0 0 22.687995 22.687995h93.774024a22.687996 22.687996 0 0 0 22.687996-22.687995V434.107573l-0.009075-0.68064c-0.880294-28.913582-20.528099-71.920947-71.081491-71.920946z" fill="#6E6E96" p-id="3209"></path><path d="M681.061869 434.107573v80.161227h-93.774024V434.107573s-1.524633-49.913591 45.375992-49.913591c46.896087 0 48.398033 49.913591 48.398032 49.913591z" fill="#B3948A" p-id="3210"></path><path d="M658.373873 434.107573v80.161227a22.687996 22.687996 0 0 1 22.687996-22.687996h-93.774024c12.537386 0 22.687996 10.155147 22.687996 22.687996V434.107573l-0.009075-0.689715c-0.036301-3.462188 1.229689-15.32801 7.33276-21.503682 1.229689-1.243302 4.982284-5.032197 15.364311-5.032198 21.957442 0 25.30619 19.665955 25.732724 28.119502-0.022688-0.376621-0.022688-0.517286-0.022688-0.893907z m-25.710036-72.601586c-24.534799 0-39.663154 10.291275-48.0441 18.921788-20.419196 21.05446-20.115177 51.025302-20.006275 54.369513a17.660336 17.660336 0 0 1-0.013613-0.689715v80.161227c0 12.537386 10.155147 22.687996 22.687996 22.687995h93.774024c12.537386 0 22.687996-10.150609 22.687996-22.687995V434.107573l-0.009075-0.68064c-0.875757-28.913582-20.523561-71.920947-71.076953-71.920946zM508.755617 662.044791h45.375991v339.258138h-45.375991z" fill="#6E6E96" p-id="3211"></path><path d="M308.978739 297.970523h447.711295v40.84293H308.978739zM717.362662 338.813453h39.327372v639.80148h-39.327372zM311.578783 13.612797H263.176213v33.274215h48.40257V13.612797z m276.802623 0h-48.40257v33.274215h48.40257V13.612797z m198.134267 0v158.815971c0 24.956795-20.419196 45.375991-45.375991 45.375991H193.601205v3.026579c0 24.956795 20.419196 45.375991 45.375992 45.375991H789.542252c24.956795 0 45.375991-20.419196 45.375991-45.375991V13.612797h-48.40257z" fill="#6E6E96" opacity=".2" p-id="3212"></path><path d="M45.375991 933.238942h980.121417v45.375991H45.375991zM529.932592 655.991634c-120.246377 0-152.640298 76.99852-152.640298 137.847724v60.495272c0-60.844667 32.39392-137.838649 152.640298-137.838649 120.264528 0 152.644835 89.095759 152.644835 137.838649v-60.495272c0-48.747428-32.380308-137.847725-152.644835-137.847724z" fill="#6E6E96" opacity=".2" p-id="3213"></path></svg>